<svg width="110" height="25" viewBox="0 0 110 25" fill="none" xmlns="http://www.w3.org/2000/svg">
<path d="M21.2902 3.41111V17.4756H29.5486V14.7333H24.2904V6.37961C24.2904 4.76669 22.9355 3.41111 21.2902 3.41111ZM34.0004 7.89663H31.1291V17.4769H33.9997L34.0004 7.89663ZM54.7097 13.348C54.7097 14.2835 54.2903 15.1548 53.0968 15.1548C51.9999 15.1548 51.6129 14.3159 51.6129 13.3804V7.89595H48.7423V14.1869C48.7423 16.2193 49.9999 17.7349 52.0965 17.7349C53.1285 17.7349 54.1613 17.3162 54.8387 16.3483V17.5093H57.5479V7.92905H54.6773V13.348H54.7097ZM62.9682 7.89663H60.0976V17.4769H62.9682V7.89663ZM94.7099 11.5406L93.9359 11.3791C93.097 11.186 92.7424 11.0245 92.7424 10.5403C92.7424 10.0566 93.2267 9.8628 93.8069 9.8628C94.3553 9.8628 94.9038 10.0249 94.9038 10.8307H97.8068C97.646 8.66932 96.0007 7.66968 93.8069 7.66968C91.6138 7.66968 89.807 8.76658 89.807 10.7341C89.807 12.7016 91.2909 13.3467 93.0004 13.7019L93.9359 13.8951C94.6458 14.0572 95.0328 14.2504 95.0328 14.7664C95.0328 15.3149 94.5492 15.5729 93.8393 15.5729C93.097 15.5729 92.5168 15.25 92.5168 14.3794H89.5166C89.6456 16.7664 91.4523 17.7342 93.9359 17.7342C96.2587 17.7342 98.033 16.6698 98.033 14.5084C98.0006 12.605 96.5816 11.96 94.7099 11.5406ZM102.13 11.5406C102.484 10.6051 103.258 9.99181 104.387 9.99181C105.516 9.99181 106.323 10.5727 106.613 11.5406H102.13ZM109.419 12.5726C109.419 9.83038 107.517 7.66901 104.42 7.66901C101.452 7.66901 99.2907 9.92764 99.2907 12.7016C99.2907 15.4763 101.323 17.7336 104.387 17.7336C106.936 17.7336 108.678 16.4118 109.259 14.3794H106.484C106.065 15.0886 105.42 15.4439 104.42 15.4439C103.129 15.4439 102.259 14.6374 102.032 13.4439H109.419V12.5726ZM82.3226 15.3142C81.6471 15.3129 80.9996 15.044 80.522 14.5664C80.0443 14.0887 79.7754 13.4413 79.7742 12.7658C79.7756 12.0904 80.0446 11.443 80.5222 10.9654C80.9998 10.4878 81.6471 10.2188 82.3226 10.2174C82.9981 10.2186 83.6455 10.4875 84.1232 10.9652C84.6008 11.4428 84.8697 12.0903 84.871 12.7658C84.8386 14.1849 83.7099 15.3142 82.3226 15.3142ZM84.9676 8.44305C84.1935 7.95944 83.2905 7.70143 82.3226 7.70143C79.5162 7.70143 77.2258 9.99113 77.2258 12.7982C77.2258 15.6046 79.5162 17.895 82.3226 17.895C83.2905 17.895 84.1935 17.637 84.9676 17.1527V17.5073H87.7098V7.92702H84.9676V8.44305ZM70.8389 15.3149C70.1634 15.3136 69.516 15.0447 69.0383 14.5671C68.5607 14.0894 68.2918 13.442 68.2906 12.7665C68.292 12.091 68.5609 11.4437 69.0385 10.9661C69.5161 10.4885 70.1635 10.2195 70.8389 10.2181C71.5144 10.2193 72.1619 10.4882 72.6395 10.9659C73.1172 11.4435 73.3861 12.091 73.3873 12.7665C73.3861 13.442 73.1172 14.0894 72.6395 14.5671C72.1619 15.0447 71.5144 15.3136 70.8389 15.3149ZM71.1618 7.70278C70.1199 7.64036 69.084 7.89922 68.194 8.4444V4.83086C68.1942 4.4707 68.1235 4.11402 67.9858 3.78123C67.848 3.44845 67.646 3.14608 67.3913 2.89144C67.1366 2.6368 66.8342 2.43489 66.5014 2.29724C66.1686 2.1596 65.8119 2.08894 65.4517 2.08929V17.4762H68.194V17.1216C68.968 17.6052 69.871 17.8633 70.8389 17.8633C73.7743 17.8633 76.1296 15.3797 75.9033 12.4125C75.7426 9.8959 73.6778 7.86421 71.1618 7.70278ZM32.5482 3.41111C32.3274 3.40949 32.1085 3.45178 31.9043 3.53552C31.7 3.61927 31.5144 3.74279 31.3583 3.89891C31.2021 4.05502 31.0786 4.24062 30.9949 4.44491C30.9111 4.6492 30.8688 4.86809 30.8705 5.08887C30.8689 5.30959 30.9113 5.52842 30.9951 5.73262C31.0789 5.93683 31.2024 6.12235 31.3585 6.2784C31.5146 6.43444 31.7002 6.5579 31.9044 6.6416C32.1087 6.72531 32.3275 6.76758 32.5482 6.76596C32.7689 6.7674 32.9876 6.725 33.1917 6.64122C33.3958 6.55745 33.5813 6.43397 33.7373 6.27795C33.8933 6.12193 34.0168 5.93648 34.1006 5.73236C34.1844 5.52824 34.2267 5.30951 34.2253 5.08887C34.2253 4.18515 33.4837 3.41111 32.5482 3.41111ZM61.516 3.41111C61.2953 3.40958 61.0765 3.45194 60.8722 3.53572C60.668 3.6195 60.4825 3.74304 60.3265 3.89915C60.1704 4.05526 60.047 4.24082 59.9633 4.44507C59.8796 4.64931 59.8373 4.86815 59.8389 5.08887C59.8374 5.30954 59.8797 5.5283 59.9635 5.73247C60.0472 5.93663 60.1707 6.12212 60.3267 6.27815C60.4827 6.43419 60.6682 6.55767 60.8724 6.64141C61.0766 6.72515 61.2953 6.76749 61.516 6.76596C61.7367 6.76749 61.9555 6.72515 62.1597 6.64142C62.3639 6.55769 62.5494 6.43422 62.7055 6.27819C62.8616 6.12217 62.9851 5.93668 63.069 5.73252C63.1528 5.52835 63.1952 5.30957 63.1938 5.08887C63.1938 4.18515 62.4515 3.41111 61.516 3.41111ZM41.0654 15.3149C40.3899 15.3134 39.7426 15.0445 39.265 14.5669C38.7874 14.0893 38.5184 13.4419 38.517 12.7665C38.5182 12.091 38.7871 11.4435 39.2648 10.9659C39.7424 10.4882 40.3899 10.2193 41.0654 10.2181C41.7409 10.2193 42.3883 10.4882 42.866 10.9659C43.3436 11.4435 43.6125 12.091 43.6138 12.7665C43.6125 13.442 43.3436 14.0894 42.866 14.5671C42.3883 15.0447 41.7409 15.3136 41.0654 15.3149ZM43.6779 7.89595V8.47682C42.7839 7.91019 41.7343 7.63915 40.6777 7.7021C38.1293 7.86353 36.0645 9.8959 35.9038 12.4119C35.7106 15.3797 38.0651 17.8633 40.9681 17.8633C41.8512 17.857 42.7179 17.6237 43.4848 17.1858V21.2505C43.4865 22.0113 43.7896 22.7404 44.3275 23.2784C44.8655 23.8163 45.5946 24.1193 46.3553 24.1211V7.89663L43.6779 7.89595ZM7.32164 0.121094C11.612 0.121094 14.6122 1.66918 14.6122 3.05651C14.6122 4.44384 11.612 5.99192 7.32232 5.99192C3.032 5.99192 0.0310697 4.44384 0.0310697 3.05651C0.0317451 1.66918 2.9989 0.121094 7.32164 0.121094ZM7.48375 15.9275C5.16162 16.4759 2.74224 17.0568 1.19348 18.0888C0.419441 17.6052 0 17.0568 0 16.5401C0 14.218 3.87088 13.3467 7.61275 12.5078C10.3226 11.8952 13.0648 11.2825 14.6129 10.0242V12.0566C14.6129 14.218 11 15.0893 7.48375 15.9275ZM7.35542 11.2825C4.51591 11.9276 1.61292 12.5726 0 13.9599V13.5081C0 9.47578 4.41933 8.44372 8.70965 7.44409C11.8065 6.70179 13.3228 6.34719 14.6129 5.31446V7.5731C14.6129 9.63721 10.9041 10.4761 7.35542 11.2825ZM14.6129 14.5726C13.0966 15.8626 10.3867 16.5083 7.77418 17.121C5.87082 17.5735 3.93505 18.0247 2.58014 18.7015C3.80604 19.154 5.45071 19.4444 7.32232 19.4444C11.5802 19.4444 14.6129 17.9274 14.6129 16.5083V14.5726Z" fill="white"/>
</svg>
